<mxfile host="app.diagrams.net" modified="2024-05-07T09:12:51.375Z" agent="Mozilla/5.0 (X11; Linux x86_64) AppleWebKit/537.36 (KHTML, like Gecko) Chrome/93.0.4577.63 Safari/537.36 UOS" version="24.2.5" etag="caIfaQaHDLmZIjuRaEZE" type="github">
  <diagram name="第 1 页" id="cCfLSERalZesiTVRI7bX">
    <mxGraphModel>
      <root>
        <mxCell id="0" />
        <mxCell id="1" parent="0" />
      </root>
    </mxGraphModel>
  </diagram>
</mxfile>
